<?xml version="1.0" standalone="no"?>
<!DOCTYPE svg PUBLIC "-//W3C//DTD SVG 20010904//EN"
 "http://www.w3.org/TR/2001/REC-SVG-20010904/DTD/svg10.dtd">
<svg version="1.0" xmlns="http://www.w3.org/2000/svg"
 width="331.000000pt" height="323.000000pt" viewBox="0 0 331.000000 323.000000"
 preserveAspectRatio="xMidYMid meet">

<g transform="translate(0.000000,323.000000) scale(0.100000,-0.100000)"
fill="#000000" stroke="none">
<path d="M3248 3210 c23 -14 32 -26 28 -37 -6 -16 9 -43 25 -43 5 0 9 23 9 50
l0 50 -47 0 -48 0 33 -20z"/>
<path d="M2335 3070 c-3 -5 -1 -10 4 -10 6 0 11 5 11 10 0 6 -2 10 -4 10 -3 0
-8 -4 -11 -10z"/>
<path d="M1381 2743 c-19 -4 -21 -7 -10 -15 10 -6 3 -7 -20 -3 -26 6 -32 4
-26 -6 6 -9 3 -11 -9 -6 -20 8 -115 -32 -135 -57 -7 -9 -22 -16 -33 -16 -14 0
-18 -5 -14 -15 3 -8 0 -15 -7 -15 -7 0 -30 -21 -52 -46 -22 -25 -45 -51 -50
-57 -30 -35 -83 -140 -99 -197 -22 -78 -22 -213 -1 -285 22 -70 20 -75 -21
-75 -21 0 -33 -4 -29 -10 3 -5 1 -10 -4 -10 -14 0 -14 -61 0 -97 13 -34 70
-125 75 -120 2 2 -2 21 -9 43 -7 21 -12 58 -12 81 0 42 -8 56 -18 31 -3 -7 -5
-1 -4 15 1 29 15 35 36 15 11 -10 12 -10 7 -1 -5 9 -2 11 9 7 12 -5 15 -19 14
-61 -2 -38 -6 -52 -15 -49 -9 3 -8 -2 2 -22 8 -15 14 -34 14 -42 0 -8 4 -20 8
-27 10 -16 14 200 4 278 -5 42 -4 77 2 97 16 46 24 48 20 5 -3 -29 -2 -33 5
-18 9 18 10 17 10 -8 1 -17 5 -26 11 -22 7 4 8 -8 4 -34 -5 -34 -4 -41 10 -41
9 0 16 7 16 15 0 21 13 19 30 -5 11 -15 16 -16 23 -7 6 9 7 8 4 -3 -2 -8 -12
-14 -22 -12 -11 2 -15 -1 -9 -9 5 -8 2 -11 -8 -7 -9 4 -18 -4 -25 -23 -6 -16
-7 -27 -2 -23 15 9 10 -23 -6 -36 -10 -8 -13 -21 -9 -33 4 -14 3 -17 -7 -12
-9 6 -11 3 -6 -9 4 -10 7 -20 7 -22 0 -2 7 -4 15 -4 8 0 23 -4 33 -9 9 -5 25
-12 35 -15 13 -4 16 -12 12 -25 -4 -12 2 -23 18 -34 22 -14 28 -14 76 11 29
14 55 31 58 39 3 7 10 13 16 13 8 0 7 -4 -1 -12 -7 -7 -8 -17 -1 -30 6 -12 6
-18 -1 -18 -5 0 -10 -5 -10 -11 0 -13 -41 -48 -57 -49 -13 0 -35 -20 -57 -52
-8 -11 -27 -22 -41 -24 -53 -5 -64 -53 -29 -131 8 -17 11 -38 8 -47 -3 -9 -1
-16 5 -16 19 0 56 -72 53 -105 -2 -20 0 -26 6 -17 14 21 24 -29 16 -78 -4 -25
-3 -40 4 -40 5 0 8 -10 5 -22 -3 -13 -2 -20 2 -15 5 4 17 -11 27 -33 11 -22
23 -38 28 -35 6 4 10 1 10 -5 0 -7 -7 -10 -15 -6 -9 3 -15 0 -15 -10 0 -8 4
-13 9 -10 5 3 11 -4 14 -15 3 -12 9 -19 14 -17 4 2 19 -6 32 -19 20 -19 21
-23 7 -23 -9 0 -19 7 -22 15 -4 8 -10 12 -15 9 -11 -6 -30 12 -47 46 -11 23
-12 22 -7 -17 11 -86 69 -223 126 -294 21 -27 43 -41 86 -54 58 -18 186 -76
254 -116 l37 -21 38 41 c20 23 51 49 68 57 63 31 104 92 141 205 42 131 75
311 74 398 -2 54 -3 59 -8 28 -3 -21 -9 -38 -13 -37 -5 0 -12 0 -18 0 -5 0
-10 7 -10 15 0 22 -70 95 -91 95 -24 0 -24 7 1 65 60 140 23 410 -50 365 -19
-12 -52 0 -45 18 3 8 1 20 -5 27 -14 16 68 102 93 97 11 -2 17 3 18 15 4 66
-1 93 -23 128 -14 22 -28 52 -31 66 -4 15 -18 34 -32 43 -27 18 -34 42 -10 32
20 -7 30 17 16 42 -7 13 -7 22 0 29 7 7 8 20 3 34 -4 13 -8 26 -9 29 0 3 -10
15 -23 28 -13 13 -21 30 -18 38 3 8 2 14 -3 14 -5 0 -16 15 -25 34 -11 24 -21
33 -34 30 -9 -3 -27 4 -38 15 -12 11 -24 17 -28 14 -9 -9 -116 -10 -122 -1 -3
4 2 8 12 8 14 0 14 3 4 15 -7 9 -9 19 -5 23 4 4 10 1 12 -6 3 -8 10 -5 22 10
l18 21 22 -22 22 -22 19 20 c15 18 19 19 24 6 7 -19 42 -20 49 -1 6 15 47 29
47 15 0 -5 8 -9 17 -9 18 0 63 -45 63 -63 0 -6 7 -19 16 -28 16 -18 22 -40 30
-109 6 -61 32 -176 33 -149 0 14 6 30 13 37 8 8 8 15 -1 26 -14 16 -6 40 10
31 13 -8 11 -52 -2 -74 -14 -21 -3 -95 12 -86 5 4 9 -1 9 -10 0 -9 -5 -13 -10
-10 -7 4 -9 -2 -6 -17 3 -12 8 -45 12 -73 6 -40 8 -45 13 -26 9 33 25 37 39 9
8 -18 11 -19 11 -5 1 9 5 17 10 17 13 0 32 58 20 65 -5 4 -13 3 -19 0 -15 -9
-12 92 3 106 11 11 10 16 -4 30 -9 9 -24 50 -33 90 -26 113 -82 217 -151 280
-16 15 -50 46 -75 69 -53 48 -183 113 -258 129 -53 11 -105 12 -151 4z m-219
-173 c-14 -16 -28 -27 -30 -25 -8 8 28 55 42 55 9 0 5 -10 -12 -30z m370 -77
c-10 -4 -10 -8 -1 -19 9 -11 7 -14 -15 -14 -19 0 -26 5 -26 20 0 11 7 20 15
20 8 0 15 5 15 12 0 9 3 8 13 -1 10 -11 9 -14 -1 -18z m-336 -40 c-8 -24 -56
-77 -80 -86 -10 -4 -20 -16 -23 -27 -3 -11 -14 -20 -24 -20 -12 0 -19 -7 -19
-20 0 -11 -7 -23 -16 -27 -10 -3 -14 -14 -11 -27 3 -11 1 -30 -3 -41 -8 -18
-9 -17 -9 8 -1 15 -5 27 -11 27 -5 0 -14 8 -19 19 -8 14 -4 39 16 97 26 78 52
113 86 114 9 0 17 4 17 10 0 6 9 6 24 0 18 -7 28 -5 37 6 11 13 14 13 27 1 8
-8 11 -23 8 -34z m151 -5 c-3 -8 -6 -5 -6 6 -1 11 2 17 5 13 3 -3 4 -12 1 -19z
m-67 -117 c0 -10 -38 -18 -62 -13 -34 7 -18 22 22 22 22 0 40 -4 40 -9z m650
-63 c0 -19 -2 -20 -10 -8 -13 19 -13 30 0 30 6 0 10 -10 10 -22z m17 0 c-3 -8
-6 -5 -6 6 -1 11 2 17 5 13 3 -3 4 -12 1 -19z m-581 -93 c7 -50 10 -52 35 -29
17 16 18 15 14 -17 -2 -18 1 -39 7 -46 5 -7 8 -19 5 -27 -3 -8 -1 -17 6 -20 7
-2 4 -5 -5 -5 -24 -1 -23 -18 2 -31 29 -15 26 -50 -3 -50 -23 0 -74 54 -70 75
4 21 -68 55 -117 55 -27 0 -65 8 -85 17 -35 17 -35 17 -13 30 13 7 33 12 46
13 12 0 22 6 22 14 0 17 23 27 39 17 16 -10 61 -2 61 11 0 6 6 6 14 -1 10 -9
16 -9 21 -1 8 13 8 13 -20 28 -19 11 -18 11 7 12 24 0 27 -4 34 -45z m610 -52
c-10 -10 -19 5 -10 18 6 11 8 11 12 0 2 -7 1 -15 -2 -18z m-521 -33 c3 -5 1
-10 -4 -10 -6 0 -11 5 -11 10 0 6 2 10 4 10 3 0 8 -4 11 -10z m205 -145 c0 -8
-7 -15 -16 -15 -14 0 -14 3 -4 15 7 8 14 15 16 15 2 0 4 -7 4 -15z m-477 -45
c6 -22 0 -25 -22 -11 -7 5 -10 14 -7 20 11 17 23 13 29 -9z m274 -42 c4 -7 17
-18 28 -24 11 -6 22 -22 23 -35 2 -13 10 -28 18 -32 8 -4 21 -21 29 -37 14
-27 14 -30 -8 -52 -12 -13 -29 -37 -36 -55 -8 -19 -22 -34 -37 -37 -13 -4 -24
-11 -24 -16 0 -13 -27 -13 -35 0 -3 6 1 7 9 4 20 -8 21 13 2 32 -17 16 -72 19
-81 4 -13 -21 -26 -9 -23 23 2 17 8 31 13 30 14 -2 45 27 45 43 0 7 7 17 16
22 15 8 15 11 -1 36 -16 25 -16 27 1 53 35 55 47 62 61 41z m-303 -23 c-4 -8
-1 -22 6 -30 16 -19 9 -28 -14 -19 -19 7 -19 64 1 64 7 0 10 -7 7 -15z m406
-405 c0 -25 -4 -30 -34 -36 -27 -5 -86 -2 -123 5 -2 1 -3 12 -3 25 0 21 4 23
50 25 33 0 50 -3 50 -12 0 -6 5 -4 11 6 5 9 19 17 29 17 15 0 20 -7 20 -30z
m47 14 c1 -5 -2 -16 -7 -24 -12 -20 -35 2 -26 25 6 17 27 16 33 -1z m33 6 c0
-5 -5 -10 -11 -10 -5 0 -7 5 -4 10 3 6 8 10 11 10 2 0 4 -4 4 -10z m-250 -30
c0 -5 -4 -10 -10 -10 -5 0 -10 5 -10 10 0 6 5 10 10 10 6 0 10 -4 10 -10z m6
-101 c12 -20 -15 -7 -47 21 l-34 31 38 -22 c20 -11 40 -25 43 -30z m-92 -5 c9
-8 16 -21 16 -27 0 -6 -7 -1 -16 11 -8 12 -20 19 -26 16 -7 -4 -8 -2 -4 4 9
15 12 15 30 -4z m144 -32 c12 4 18 -1 18 -13 0 -13 -6 -17 -21 -13 -11 3 -31
6 -45 7 -28 2 -62 26 -54 39 3 4 23 0 45 -8 21 -9 47 -14 57 -12z m-88 -404
c0 -5 -7 -8 -15 -8 -15 0 -20 21 -8 33 7 7 23 -11 23 -25z m70 -28 c3 -3 16
-5 30 -5 16 0 25 -6 25 -15 0 -8 -7 -13 -15 -11 -8 2 -30 6 -47 9 -18 2 -33 8
-33 13 0 5 -10 9 -22 9 -22 1 -22 1 -4 15 17 13 44 7 66 -15z m420 -245 c-7
-9 -15 -13 -19 -10 -3 3 1 10 9 15 21 14 24 12 10 -5z m-36 -12 c4 -10 4 -14
0 -11 -3 4 -17 -5 -31 -20 -21 -24 -23 -24 -13 -4 6 12 8 27 5 32 -3 6 1 7 9
4 9 -3 16 -1 16 5 0 16 7 13 14 -6z"/>
<path d="M338 2633 c6 -2 18 -2 25 0 6 3 1 5 -13 5 -14 0 -19 -2 -12 -5z"/>
<path d="M206 2615 c4 -8 8 -15 10 -15 2 0 4 7 4 15 0 8 -4 15 -10 15 -5 0 -7
-7 -4 -15z"/>
<path d="M3160 2581 c0 -10 35 -21 65 -21 20 1 20 1 1 15 -22 16 -66 20 -66 6z"/>
<path d="M1590 2476 c0 -2 7 -9 15 -16 9 -7 15 -8 15 -2 0 5 -7 12 -15 16 -8
3 -15 4 -15 2z"/>
<path d="M2217 2463 c-4 -3 -7 -11 -7 -17 0 -6 5 -5 12 2 6 6 9 14 7 17 -3 3
-9 2 -12 -2z"/>
<path d="M57 2419 c-9 -6 -17 -14 -17 -19 0 -17 27 -11 34 6 8 22 5 25 -17 13z"/>
<path d="M2135 2420 c-3 -5 -1 -10 4 -10 6 0 11 5 11 10 0 6 -2 10 -4 10 -3 0
-8 -4 -11 -10z"/>
<path d="M53 2381 c-29 -14 -53 -32 -53 -40 0 -8 6 -11 16 -7 9 3 27 9 40 12
13 3 24 10 24 16 0 5 4 7 9 4 4 -3 17 1 27 9 10 8 27 15 36 15 9 0 20 5 23 10
12 20 -71 7 -122 -19z"/>
<path d="M2310 2394 c0 -8 5 -12 10 -9 6 4 8 11 5 16 -9 14 -15 11 -15 -7z"/>
<path d="M2520 2399 c0 -5 5 -7 10 -4 6 3 10 8 10 11 0 2 -4 4 -10 4 -5 0 -10
-5 -10 -11z"/>
<path d="M255 2369 c-4 -5 -10 -7 -15 -4 -5 3 -11 2 -14 -3 -2 -4 4 -13 14
-19 14 -10 21 -8 34 6 15 16 15 19 2 24 -9 4 -18 2 -21 -4z"/>
<path d="M2141 2353 c-6 -10 -11 -12 -11 -5 0 6 -7 12 -15 12 -19 0 -19 -7 -1
-25 16 -16 56 -9 56 11 0 21 -18 26 -29 7z"/>
<path d="M2468 2363 c6 -2 18 -2 25 0 6 3 1 5 -13 5 -14 0 -19 -2 -12 -5z"/>
<path d="M690 2340 c0 -5 7 -10 15 -10 8 0 15 5 15 10 0 6 -7 10 -15 10 -8 0
-15 -4 -15 -10z"/>
<path d="M2493 2318 c-30 -14 -29 -24 1 -32 28 -7 51 0 85 26 l24 18 -44 -1
c-24 0 -54 -5 -66 -11z"/>
<path d="M2235 2310 c-3 -5 -18 -11 -33 -11 -25 -2 -25 -2 -3 -6 29 -6 71 4
71 17 0 13 -27 13 -35 0z"/>
<path d="M2325 2290 c-3 -5 -1 -10 4 -10 6 0 11 5 11 10 0 6 -2 10 -4 10 -3 0
-8 -4 -11 -10z"/>
<path d="M2396 2291 c-8 -12 3 -41 15 -41 12 0 12 37 0 45 -5 3 -12 1 -15 -4z"/>
<path d="M2605 2280 c-4 -6 5 -10 20 -10 15 0 24 4 20 10 -3 6 -12 10 -20 10
-8 0 -17 -4 -20 -10z"/>
<path d="M2597 2230 c-3 -11 -1 -20 4 -20 5 0 9 9 9 20 0 11 -2 20 -4 20 -2 0
-6 -9 -9 -20z"/>
<path d="M2410 2230 c0 -5 5 -10 10 -10 6 0 10 5 10 10 0 6 -4 10 -10 10 -5 0
-10 -4 -10 -10z"/>
<path d="M265 2210 l-30 -8 37 -1 c20 0 40 4 43 9 7 11 -6 11 -50 0z"/>
<path d="M730 2180 c0 -6 5 -10 10 -10 6 0 10 -4 10 -10 0 -5 -7 -10 -15 -10
-8 0 -15 5 -15 10 0 12 -10 13 -29 1 -11 -7 -10 -13 4 -35 10 -15 16 -29 13
-31 -3 -3 -11 6 -18 20 -9 17 -21 25 -34 23 -24 -4 -34 -28 -11 -28 10 0 25
-8 34 -17 9 -10 26 -23 38 -30 19 -11 25 -9 48 19 26 30 30 65 7 61 -7 -2 -12
6 -12 16 0 10 -7 21 -15 25 -8 3 -15 1 -15 -4z"/>
<path d="M2425 2176 c-17 -6 -31 -19 -31 -28 -2 -23 1 -22 23 1 10 10 27 21
38 23 11 2 16 6 10 9 -5 3 -23 1 -40 -5z"/>
<path d="M3166 2098 c-32 -37 -34 -43 -19 -49 23 -8 62 20 64 46 1 18 2 18 6
2 3 -11 10 -16 20 -13 8 3 18 6 23 6 4 0 10 7 14 15 4 13 2 14 -14 5 -16 -8
-22 -6 -32 10 -7 11 -15 20 -19 20 -3 0 -22 -19 -43 -42z"/>
<path d="M2406 2109 c3 -5 17 -9 31 -9 32 0 24 11 -11 14 -14 2 -23 -1 -20 -5z"/>
<path d="M430 2090 c0 -5 7 -10 16 -10 8 0 12 5 9 10 -3 6 -10 10 -16 10 -5 0
-9 -4 -9 -10z"/>
<path d="M770 2070 c0 -5 5 -10 10 -10 6 0 10 5 10 10 0 6 -4 10 -10 10 -5 0
-10 -4 -10 -10z"/>
<path d="M605 2059 c-4 -6 -5 -13 -2 -16 7 -7 27 6 27 18 0 12 -17 12 -25 -2z"/>
<path d="M831 2014 c0 -11 3 -14 6 -6 3 7 2 16 -1 19 -3 4 -6 -2 -5 -13z"/>
<path d="M1011 2004 c0 -11 3 -14 6 -6 3 7 2 16 -1 19 -3 4 -6 -2 -5 -13z"/>
<path d="M2086 1997 c-15 -21 -15 -28 -1 -67 8 -23 15 -57 15 -74 l1 -31 14
34 c19 42 19 120 0 144 -13 18 -14 18 -29 -6z"/>
<path d="M2197 1983 c-10 -9 -8 -33 2 -33 5 0 11 9 14 20 5 20 -3 26 -16 13z"/>
<path d="M2030 1895 c0 -8 11 -31 25 -51 l25 -37 0 41 c0 31 -5 44 -19 52 -26
13 -31 13 -31 -5z"/>
<path d="M2318 1904 c-11 -10 3 -34 19 -34 8 0 13 7 11 17 -3 18 -20 27 -30
17z"/>
<path d="M2238 1871 c-17 -23 -88 -62 -101 -54 -5 3 -8 0 -5 -8 7 -21 87 -20
109 2 10 10 16 25 13 33 -3 8 -1 17 5 21 6 3 11 10 11 16 0 15 -18 10 -32 -10z"/>
<path d="M2140 1845 c0 -8 2 -15 4 -15 2 0 6 7 10 15 3 8 1 15 -4 15 -6 0 -10
-7 -10 -15z"/>
<path d="M2320 1830 c8 -5 20 -10 25 -10 6 0 3 5 -5 10 -8 5 -19 10 -25 10 -5
0 -3 -5 5 -10z"/>
<path d="M2420 1819 c-7 -11 -9 -23 -6 -26 7 -8 63 16 77 33 9 12 5 14 -24 14
-27 0 -39 -6 -47 -21z"/>
<path d="M2215 1771 c-3 -5 -1 -12 5 -16 5 -3 10 1 10 9 0 18 -6 21 -15 7z"/>
<path d="M103 1730 c1 -11 5 -20 9 -20 11 0 10 28 -1 35 -6 3 -9 -4 -8 -15z"/>
<path d="M2605 1720 c-3 -5 -1 -10 4 -10 6 0 11 5 11 10 0 6 -2 10 -4 10 -3 0
-8 -4 -11 -10z"/>
<path d="M2030 1678 c0 -16 4 -28 9 -28 18 0 20 17 6 36 -14 18 -14 18 -15 -8z"/>
<path d="M921 1671 c-9 -16 -8 -25 6 -40 23 -27 33 -17 23 20 -12 42 -16 45
-29 20z"/>
<path d="M2123 1667 c-18 -7 -38 -18 -45 -25 -11 -12 -4 -13 42 -9 84 8 120
18 120 33 0 17 -70 18 -117 1z"/>
<path d="M991 1634 c0 -11 3 -14 6 -6 3 7 2 16 -1 19 -3 4 -6 -2 -5 -13z"/>
<path d="M125 1620 c-3 -5 -1 -10 4 -10 6 0 11 5 11 10 0 6 -2 10 -4 10 -3 0
-8 -4 -11 -10z"/>
<path d="M2320 1620 c0 -5 12 -10 26 -10 14 0 23 4 19 10 -3 6 -15 10 -26 10
-10 0 -19 -4 -19 -10z"/>
<path d="M40 1561 c0 -6 5 -13 10 -16 6 -3 10 1 10 9 0 9 -4 16 -10 16 -5 0
-10 -4 -10 -9z"/>
<path d="M728 1543 c7 -3 16 -2 19 1 4 3 -2 6 -13 5 -11 0 -14 -3 -6 -6z"/>
<path d="M2390 1515 c13 -14 25 -25 27 -25 2 0 -4 11 -13 25 -9 14 -21 25 -27
25 -6 0 0 -11 13 -25z"/>
<path d="M2185 1520 c-4 -6 6 -10 22 -10 22 0 25 2 13 10 -19 12 -27 12 -35 0z"/>
<path d="M965 1412 c-2 -2 -43 -5 -92 -7 -96 -3 -178 -24 -93 -23 25 0 70 -2
100 -5 41 -5 65 -1 97 13 24 10 43 20 43 22 0 4 -51 4 -55 0z"/>
<path d="M140 1339 c0 -5 5 -7 10 -4 6 3 10 8 10 11 0 2 -4 4 -10 4 -5 0 -10
-5 -10 -11z"/>
<path d="M590 1332 c0 -11 8 -22 18 -24 15 -4 19 -16 20 -58 1 -37 6 -56 19
-67 30 -24 122 -63 149 -63 22 0 23 2 14 20 -6 11 -32 31 -58 43 -92 45 -116
63 -106 79 6 10 -20 61 -40 77 -14 12 -16 10 -16 -7z"/>
<path d="M1132 1300 c7 -10 14 -18 15 -16 6 6 -9 36 -18 36 -5 0 -4 -9 3 -20z"/>
<path d="M706 1271 c-3 -4 3 -16 13 -25 23 -21 39 -3 17 19 -17 17 -23 18 -30
6z"/>
<path d="M800 1259 c0 -5 5 -7 10 -4 6 3 10 8 10 11 0 2 -4 4 -10 4 -5 0 -10
-5 -10 -11z"/>
<path d="M340 1130 c-10 -6 -11 -10 -2 -10 6 0 12 -7 12 -15 0 -8 4 -15 9 -15
4 0 6 11 3 25 -2 14 -5 25 -6 25 0 0 -8 -5 -16 -10z"/>
<path d="M452 1090 c7 -10 14 -18 15 -16 6 6 -9 36 -18 36 -5 0 -4 -9 3 -20z"/>
<path d="M641 1101 c-10 -7 -8 -12 9 -24 21 -15 22 -17 6 -32 -13 -13 -14 -20
-5 -31 6 -7 7 -19 3 -26 -4 -6 7 -1 25 12 30 21 34 22 43 7 11 -21 27 -21 52
-2 20 15 20 15 0 30 -22 17 -38 20 -29 5 3 -5 2 -10 -3 -10 -16 0 -22 13 -11
27 9 10 7 13 -7 14 -11 1 -22 1 -26 0 -5 0 -8 8 -8 19 0 21 -24 27 -49 11z"/>
<path d="M311 1050 c-8 -4 -20 -6 -28 -3 -7 3 -13 1 -13 -5 0 -16 51 -21 57
-5 7 18 1 24 -16 13z"/>
<path d="M780 990 c-8 -5 -10 -10 -5 -10 6 0 17 5 25 10 8 5 11 10 5 10 -5 0
-17 -5 -25 -10z"/>
<path d="M546 974 c-15 -9 -37 -14 -47 -11 -16 4 -19 0 -18 -31 0 -32 2 -34
10 -16 6 11 32 28 60 38 27 10 49 22 49 27 0 13 -21 10 -54 -7z"/>
<path d="M291 963 c-1 -7 -36 -14 -96 -18 -52 -4 -98 -11 -101 -16 -3 -5 -16
-9 -29 -9 -13 0 -27 -4 -30 -10 -4 -6 5 -10 19 -10 16 0 26 -6 26 -15 0 -9 10
-15 23 -16 12 0 48 -4 80 -8 l58 -7 27 44 c21 37 27 42 32 27 5 -14 8 -16 15
-6 4 7 3 16 -2 20 -6 3 -13 13 -16 21 -3 8 -6 10 -6 3z"/>
<path d="M861 946 c-10 -12 -8 -13 8 -9 12 3 18 9 15 14 -7 12 -10 11 -23 -5z"/>
<path d="M606 925 c-3 -9 0 -15 9 -15 8 0 15 7 15 15 0 8 -4 15 -9 15 -5 0
-11 -7 -15 -15z"/>
<path d="M0 909 c0 -5 5 -7 10 -4 5 3 10 8 10 11 0 2 -4 4 -10 4 -5 0 -10 -5
-10 -11z"/>
<path d="M435 880 c-3 -5 1 -10 9 -10 9 0 16 5 16 10 0 6 -4 10 -9 10 -6 0
-13 -4 -16 -10z"/>
<path d="M481 823 c-1 -12 4 -25 9 -28 12 -7 12 2 0 30 -8 19 -9 19 -9 -2z"/>
<path d="M478 708 c17 -17 15 -28 -4 -28 -8 0 -12 -5 -9 -10 4 -7 13 -7 26 0
16 9 17 14 6 30 -6 11 -16 20 -21 20 -6 0 -5 -5 2 -12z"/>
<path d="M430 639 c0 -5 5 -7 10 -4 6 3 10 8 10 11 0 2 -4 4 -10 4 -5 0 -10
-5 -10 -11z"/>
<path d="M376 599 c-14 -17 -26 -36 -26 -42 0 -13 49 43 50 56 0 5 5 5 10 2 6
-3 10 -1 10 4 0 20 -18 11 -44 -20z"/>
<path d="M167 504 c-8 -8 1 -24 14 -24 5 0 9 7 9 15 0 15 -12 20 -23 9z"/>
</g>
</svg>
