<?xml version='1.0' encoding='utf-8'?>
<svg xmlns="http://www.w3.org/2000/svg" width="3072pt" height="3072pt" version="1.0" viewBox="0 0 3072 3072"> <g transform="translate(0 3072) scale(.1 -.1)"> <path d="m15335 24109c-556-40-1105-186-1525-405-486-254-861-630-1027-1033-120-290-162-515-141-759l11-132-47-50c-26-28-53-65-61-84-17-39-43-156-47-206-3-31-6-35-28-33-14 0-64 24-110 52-94 58-148 76-265 91-107 14-565 14-701 0-190-20-348-70-484-153-59-36-74-41-160-49-52-5-475-13-940-17-893-9-924-11-1121-60-221-55-416-176-544-336-67-85-144-234-178-346-50-161-118-554-178-1019-34-256-18-320 93-376l50-25-6-47c-14-124-69-6489-69-8042 0-567 51-901 178-1177 66-143 218-355 331-463 264-252 560-387 964-441 88-12 3274-18 7635-15 1781 2 3478-4 4123-14 704-10 818-7 1047 30 213 34 364 87 515 182 302 189 520 422 660 703 72 147 101 232 139 423 61 299 59 138 60 3857 1 3410-7 4572-33 4845l-13 145 58 62c87 94 91 124 53 458-43 377-123 766-195 950-134 345-378 554-758 650-216 55-240 56-1146 60-487 2-858 7-882 13-24 5-78 32-120 60-194 127-241 136-718 137-490 0-619-17-829-112-43-19-93-36-110-37l-31-1-7 70c-21 191-42 252-113 313l-35 32-4 162c-6 315-93 603-273 905-319 535-908 921-1718 1126-99 25-236 55-305 66-270 45-699 62-995 40zm795-163c373-45 671-128 1055-294 329-143 715-427 908-670 82-102 184-263 233-367 56-118 138-368 174-530 26-116 52-348 37-335-10 9-48 160-72 290-52 274-128 504-213 645-113 189-310 399-517 552-273 200-812 446-1165 529-253 60-578 94-900 95-585 0-1059-92-1562-304-434-184-750-399-950-647-85-106-212-338-267-490-63-171-84-278-102-505-6-82-14-152-16-155-3-3-3 81 0 185 8 292 55 479 182 730 89 175 164 281 299 422 182 190 358 322 606 458 190 104 564 247 782 300 196 47 499 95 693 109 127 9 668-3 795-18zm137-1055c537-54 879-132 1193-271 290-128 424-290 511-621 21-77 21-88 9-131-8-26-17-45-21-42-14 9-22-35-26-161-3-71-8-173-12-225l-6-95-635-6c-349-3-1365-7-2256-8l-1622-1 2 158c1 154 0 158-27 215-34 68-54 81-116 74l-46-4 32 13c19 8 35 23 38 36s14 68 25 123c69 343 166 496 390 618 190 104 572 219 904 272 150 24 477 56 791 79 144 10 682-4 872-23zm1802-1166c1-123-15-444-25-492-3-18-11-23-33-23h-29l5 113c2 61 8 195 13 297 6 102 10 202 10 222 0 30 4 37 23 40 12 2 25-3 29-12 4-8 7-73 7-145zm-4785 6c9-10 18-34 20-52 2-19 9-68 15-111 7-42 13-139 14-215l2-138h-37-37l-6 165c-3 91-10 203-15 249-12 108 4 146 44 102zm5392-90c13-35 18-90 22-233l4-188h-31-31v93c0 91-23 355-35 413l-6 29 30-34c17-19 38-55 47-80zm-5953 63c-1-10-14-53-29-94-25-69-27-87-27-232v-158h-47-46l4 68c15 309 36 402 96 428 38 16 52 13 49-12zm5775-63c69-13 77-28 75-127 0-47-4-88-7-92-3-3-59-9-124-14-64-4-135-10-158-14-48-7-55 0-79 76-21 66-42 103-55 95-11-7-14 68-3 78 9 10 300 8 351-2zm-5325-40c20-16 23-78 6-115-19-42-187-106-277-106-41 0-49 4-86 44-23 24-48 45-56 48-10 3-13 18-11 59 4 96-14 89 210 86 151-1 202-5 214-16zm-638-156c-3-31-9-55-11-52-3 2-2 30 2 61s9 54 12 52c2-3 1-30-3-61zm-399-20c36-9 156-67 149-73-2-2-132 1-287 8-176 8-365 10-500 5-196-6-218-5-218 9 0 9 5 16 11 16s17 7 25 15c9 8 32 16 52 16 20 1 84 5 142 8 125 9 584 5 626-4zm7962-31c120-39 64-44-483-43-253 1-487 4-520 8l-59 6 29 20c17 10 50 23 75 27s239 5 475 3c370-3 437-6 483-21zm-7975-111c-18-2-48-2-65 0-18 2-4 4 32 4s50-2 33-4zm140-10c-7-2-21-2-30 0-10 3-4 5 12 5 17 0 24-2 18-5zm175-20c-15-2-42-2-60 0s-6 4 27 4 48-2 33-4zm9812-112c440-31 708-155 876-406 46-68 96-171 113-230 16-58 5-55-13 4-15 51-76 172-102 202-8 9-12 19-9 22 3 4 0 3-6-1-6-6 5-34 33-83 24-41 54-105 66-143 39-120 108-502 118-656 2-30-7 15-21 100-49 318-70 424-107 538-22 70-79 191-111 237-16 22-17 26-4 16 14-11 17-11 17 0 0 15-110 139-123 139-5 0-5-6-1-12 4-8 3-10-2-5s-9 13-9 19-9 12-19 14c-10 1-22 7-25 11-3 5-37 25-76 45-121 62-257 99-435 118-125 14-9453 21-11935 9-1599-8-1630-9-1808-54-159-40-295-134-381-263-103-156-137-287-216-832-17-121-19-126-14-50 2 47 9 112 14 145 6 33 24 143 40 243 18 115 42 220 63 282 71 208 184 353 332 428 82 41 215 85 293 97 24 4 41 9 38 12s-40 0-83-7c-151-24-312-100-404-191-35-35-118-149-140-193-12-25-24-44-27-42-2 3 13 38 34 78 55 102 176 224 272 272 102 51 163 73 272 95 186 39 293 43 1235 50 1424 11 12084 4 12255-8zm-14079-524c-10-9-11-8-5 6 3 10 9 15 12 12s0-11-7-18zm-34-109c-3-8-6-5-6 6-1 11 2 17 5 13 3-3 4-12 1-19zm15142-144c29-122 87-492 78-500-2-3-10 33-17 78-27 185-63 388-86 488-3 14-3 22 1 19 3-4 14-42 24-85zm-5914-129c209-3 1172-6 2140-7s1893-5 2055-9 375-8 473-9c97-1 177-3 177-5s-3-11-6-20c-6-15-52-16-573-10-311 3-3193 7-6405 9-6028 4-5855 3-5856 39 0 4 478 8 1063 8 584 1 1418 5 1852 9 824 7 4421 3 5080-5zm5165-184c122-73 91-67-68 12-86 42-159 82-160 87-5 15 150-53 228-99zm-13200 89c0-6-38-10-95-10s-95 4-95 10 38 10 95 10 95-4 95-10zm-292-21c-7-11-35-32-63-46-27-14-58-35-68-47-10-11-16-14-12-6s-2 6-12-5c-25-29-102-79-109-72-9 9 52 62 114 100 29 17 74 46 100 64 56 37 66 40 50 12zm384-21c4-10 1277-13 6242-12l6236 1 7-26c11-42-6-3290-18-3362-37-239-159-459-374-675-182-183-411-324-615-378-173-47-248-49-1145-40-456 5-1311 9-1900 9-3580-1-5955-7-6400-15-315-6-562-6-646 0-299 20-511 79-725 202-342 196-582 494-651 811-13 60-17 198-23 797-16 1455-23 2647-16 2673 7 28 21 36 28 15zm12754-300c-3-172-8-923-11-1668-6-1440-8-1502-56-1699-98-404-375-730-804-944-185-92-391-148-610-167-297-25-1281-30-3855-20-1427 6-3367 10-4310 9-1189-1-1751 2-1832 10-409 39-752 177-1010 408-228 203-406 451-467 648-78 251-80 286-82 2100l-1 1570 83-3c46-2 84-4 85-5s7-760 12-1687c10-1631 10-1688 30-1770 28-119 53-185 117-308 105-202 243-355 438-485 197-131 406-214 642-253 93-16 449-18 4845-22 5814-6 5294-7 5416 13 253 40 474 148 708 345 106 89 170 157 242 255 114 155 169 289 204 492 20 116 20 152 19 1793-1 1416 1 1675 12 1678 12 2 137 17 177 21 11 1 12-55 8-311zm609 34c-4-4-67 39-114 76-13 11-21 24-17 31 5 7 29-9 71-46 35-32 62-60 60-61zm-14085 83c0-9-9-15-21-15-18 0-19 2-9 15 7 8 16 15 21 15s9-7 9-15zm-16-47c-6-16-118-98-132-98-6 0-13-6-15-12-4-9-6-10-6-1-1 15 125 123 144 123 8 0 12-6 9-12zm14683-90c-2-13-4-5-4 17-1 22 1 32 4 23 2-10 2-28 0-40zm-352-117c-4-3-135 97-135 104 0 2-3 12-7 22s27-13 69-52c42-38 75-71 73-74zm-14968 82c-3-10-5-4-5 12 0 17 2 24 5 18 2-7 2-21 0-30zm463-9c0-13-82-85-93-81-7 3 6 21 32 46 41 38 61 50 61 35zm-473-56c-3-7-5-2-5 12s2 19 5 13c2-7 2-19 0-25zm-10-50c-3-7-5-2-5 12s2 19 5 13c2-7 2-19 0-25zm333-18c0-5-4-10-9-10-4 0-46-32-92-70-46-39-115-91-153-117l-68-47-19 25c-29 35-41 69-30 83 5 6 11 20 15 31 3 11 4-1 2-27-4-49 13-78 46-78 15 0 118 75 233 170 61 50 75 58 75 40zm14757-22c35-34 47-64 13-33-11 10-30 23-42 29s-23 17-26 24c-7 23 22 12 55-20zm-15100-40c-2-13-4-3-4 22s2 35 4 23c2-13 2-33 0-45zm327 20c-23-27-37-38-42-33-4 4 49 54 57 55 2 0-4-10-15-22zm15023-55c-3-10-5-4-5 12 0 17 2 24 5 18 2-7 2-21 0-30zm0-65c-3-7-5-2-5 12s2 19 5 13c2-7 2-19 0-25zm-41-29c24-6 44-15 44-20 0-14-48-10-80 6-51 27-37 32 36 14zm-14362-154c-9-14-89-83-178-154-89-70-182-148-208-173l-47-46 15-48c16-53 12-105-11-124-11-9-15-5-21 25-3 20-4 59 0 88l6 52-53-56c-30-31-71-91-93-133-35-67-54-92-54-68 0 4 27 62 59 127 65 133 107 186 217 276s379 279 382 269c2-5-4-20-14-35zm13633-37c43-28 128-88 188-133 100-74 117-91 179-184 38-56 66-104 63-107s3-26 14-51c33-77 20-72-17 6-38 82-115 211-125 211-4 0-10-16-13-35-4-20-11-33-17-29-5 3-7 21-3 40 4 24 1 42-10 59-18 27-52 35-42 10 9-25-4-17-57 36-29 28-88 75-132 105-108 73-122 85-130 113-10 31 3 27 102-41zm703-300c20-261 24-514 10-574-7-30-17-57-21-60-12-7-17 41-28 306-6 135-14 290-17 345-4 72-2 96 5 85 6-8 11-31 11-50s5-42 11-50c8-11 9 11 5 80-8 144 12 75 24-82zm-451 45c0-10-4-27-8-37-5-12-2-31 7-48 10-20 12-44 7-78-10-73-25-61-25 19 0 38-4 71-9 73-15 5-1 88 15 88 8 0 14-8 13-17zm-14170-16c8-10 7-19-4-33-13-18-14-18-8 4 6 25-14 31-23 7-7-18-24-20-24-2 0 31 39 47 59 24zm14218-203c-16-16-27 13-26 69l1 62 15-63c9-34 13-65 10-68zm-14340-134c2-44 0-50-17-50-19 0-29 31-29 85 1 72 41 42 46-35zm-390 28c-3-8-6-5-6 6-1 11 2 17 5 13 3-3 4-12 1-19zm43-128c-7-60-16-110-20-110-5 0-6-9-3-20 3-12 0-20-7-20s-10 7-6 15c3 8 1 15-5 15s-3 7 5 16c9 8 16 27 16 42 0 39 23 183 28 177 3-2-1-54-8-115zm14647 68c-2-13-4-5-4 17-1 22 1 32 4 23 2-10 2-28 0-40zm-14690-50c-3-7-5-2-5 12s2 19 5 13c2-7 2-19 0-25zm373-78c0-79 0-80-25-80-24 0-25 2-24 73 1 49 3 64 9 47 6-20 9-22 14-9 4 9 6 20 5 25-3 16 1 24 11 24 6 0 10-33 10-80zm-441-525c7-55 11-325 11-685 0-327 5-775 10-995 14-580 14-2336 0-3795-10-973-10-1323-1-1515 25-527 58-718 169-957 137-297 398-537 711-655 140-53 448-110 636-118 137-6 2061-3 2100 3 22 3 1426 6 3120 6 1694 1 3539 5 4100 10 727 6 1141 5 1440-3 378-10 798-18 1235-22 132-1 146-3 95-10-71-11-12218-15-12315-5-196 21-310 46-430 93-330 131-572 349-728 658-100 198-143 366-174 675-14 148-25 3343-19 5975 4 1683 6 1881 17 1670 7-132 17-280 23-330zm14775 527c20-29 26-50 26-91 0-32-4-50-10-46-5 3-10 15-10 26s-7 22-15 25c-8 4-15 14-14 23 0 10 2 11 6 4 2-7 9-13 14-13s0 18-11 40c-18 35-26 70-16 70 2 0 15-17 30-38zm-14699-22c3-5 1-10-4-10-6 0-11 5-11 10 0 6 2 10 4 10 3 0 8-4 11-10zm370-113c4-13 5-48 3-77-2-43-7-56-20-58-16-3-18 6-18 77 0 65 3 81 15 81 8 0 17-10 20-23zm14323-18c-7-4-16-3-20 4-11 18 2 29 18 16 12-10 12-14 2-20zm-8-59c0-29 4-40 15-40 8 0 15-4 15-8s-9-8-20-8c-16 0-20 7-20 32 0 18-3 39-6 48s-1 16 5 16 11-17 11-40zm38-97c2-8-5-13-17-13-21 0-35 13-24 24 10 10 36 3 41-11zm-14358-15c0-17-6-23-25-24-27-2-33 14-13 34 19 19 38 14 38-10zm14756 1c15-25-1-7395-17-7599-20-254-59-403-151-581-121-234-318-430-583-582-90-52-155-81-155-70 0 5 31 23 68 40 286 138 512 353 658 626 25 49 44 90 41 93s-21-25-40-63c-128-255-348-478-594-602-94-47-88-37 12 20 300 172 522 434 615 726 80 248 83 333 81 2323-1 2255 16 5455 30 5583 11 92 19 112 35 86zm-14756-138c0-101-5-116-35-105-13 5-15 18-13 61 2 30 6 57 11 60 4 2 5 9 1 14-6 11 17 69 28 69 5 0 8-45 8-99zm14351 82c5-62 3-120-5-130-17-25-26 0-26 73 0 59 3 74 15 74 8 0 16-8 16-17zm1-208c4-17 3-34-3-42-17-20-27-7-27 37-1 47 18 50 30 5zm-14352-59c0-22 3-51 6-63 5-20 2-23-20-23-25 0-26 2-26 63 0 68 4 79 26 70 9-3 14-20 14-47zm14358-83c-2-54-6-68-20-71s-16 4-14 40c2 24 4 55 4 71 1 17 8 27 17 27 13 0 15-12 13-67zm-14350-124c-2-51-6-64-20-67-16-3-18 5-18 66 0 47 4 72 13 75 22 8 28-9 25-74zm14352-60c0-71-2-80-15-69-27 22-17 150 12 150 2 0 3-37 3-81zm-14340-106c0-64-16-103-42-103-4 0-8 38-8 85 0 84 0 85 25 85 24 0 25-2 25-67zm14325 7c-3-5-10-10-16-10-5 0-9 5-9 10 0 6 7 10 16 10 8 0 12-4 9-10zm16-62c5-78-9-148-31-148-11 0-14 33-3 43 3 4 5 34 4 67-2 49 0 60 13 60 9 0 17-9 17-22zm-14353-111c3-15 0-18-17-12-12 4-21 2-21-4s-4-11-10-11c-11 0-14 33-3 44 13 13 48 1 51-17zm-8-127c0-80-3-100-14-100-22 0-28 16-31 81-4 67 10 119 31 119 11 0 14-21 14-100zm14358-22c-3-78-11-103-30-92-4 3-8 43-8 90 0 78 2 84 20 84 19 0 20-5 18-82zm-14353-210c0-106-2-123-17-126-25-5-29 9-33 118-4 94-3 100 16 100 11 0 22 7 25 15 4 8 7 15 8 15s1-55 1-122zm14360 5c-2-88-16-143-35-143-12 0-14 96-2 104 5 3 7 26 5 52-4 55 1 74 20 74 11 0 14-18 12-87zm-14366-180c5-10 12-49 16-87l8-68-24 7c-32 10-30 4-36 89-5 66-4 76 10 76 9 0 20-8 26-17zm14368-35c2-73-6-118-20-118-9 0-12 20-9 73 4 79 7 97 20 97 4 0 9-24 9-52zm-14359-165c14-27 24-161 12-168-18-11-38 41-42 113-3 53 0 72 9 72 7 0 16-8 21-17zm14350-50c-2-44-7-59-19-61-14-2-16 6-13 50 2 29 3 56 4 61 0 4 7 7 15 7 13 0 15-11 13-57zm-9-249c-6-8-16-14-22-14-14 0 0 159 16 178 10 12 13 0 15-67 2-53-1-88-9-97zm-14337 89c13-12 18-31 18-75 0-66-14-75-36-23-14 35-20 115-7 115 3 0 15-7 25-17zm14348-209c0-73-11-114-30-114-6 0-10 41-10 95 0 88 1 95 20 95 18 0 20-7 20-76zm-14337 48c15-17 34-122 22-122-3 0-17 7-30 16-21 14-25 24-25 70 0 57 7 65 33 36zm14-172c9 0 13-15 13-53 0-61-5-70-31-56-16 8-19 21-18 82 0 59 2 68 11 50 6-13 17-23 25-23zm14331-99c2-61-1-87-10-92-31-20-38-9-38 55 0 89 9 128 29 124 13-3 17-19 19-87zm-13624-30c33-64 49-206 72-636 13-254 15-561 14-1985 0-1083 3-1736 10-1829 27-372 138-639 360-861 165-166 391-287 625-334 234-46 549-52 3295-54 1169-1 3160-4 4425-8 2413-7 2531-5 2791 36 297 48 553 171 738 356 143 143 233 296 281 477 78 291 75 231 85 2272 10 2282 19 2536 92 2602 19 17 20 17 34-2 13-17 14-102 7-605-10-725-10-2943-1-3335 8-324-4-703-28-840-39-230-166-498-308-653-176-191-481-357-749-407-181-33-350-35-2601-29-4060 10-6402 11-7091 4-720-8-883-3-1042 31-255 55-509 193-688 373-197 199-297 416-351 766-15 94-16 254-13 1585 2 814 4 1850 3 2302-1 707 1 821 13 811 8-6 20-23 27-37zm-712-23c2-7 2-41 0-76-5-88-26-77-30 16-2 57 0 72 11 72 8 0 17-6 19-12zm14348-77c0-6-4-12-9-15-4-3-6-29-4-58 2-39 1-48-6-33-8 17-10 15-10-12-1-23 4-33 14-33 23 0 18-17-7-23-12-4-25-1-29 5-10 16 1 150 13 166 12 14 38 16 38 3zm-13342-222 147-141 155-75c162-78 422-171 550-197 41-8 131-23 200-33 139-20 84-19 2435-11 2789 10 4675 11 5505 2 1217-12 1948-11 2085 5 429 48 770 189 1106 457 97 77 128 98 134 93 2-3 0-322-5-709-5-388-9-1326-8-2085 0-1439 0-1473-43-1679-69-332-285-614-587-765-244-122-333-130-1527-133-1710-4-8538 13-8855 22-435 13-576 35-755 115-151 68-336 219-431 351-58 81-130 233-153 327-54 209-59 392-53 2017l4 1315-31 570c-17 314-33 598-36 633-4 42-2 62 6 62 6 0 77-63 157-141zm-1010 57c3-66-4-85-30-86-5 0-8 36-8 81 0 71 2 80 18 77 14-3 18-16 20-72zm14352-68c0-17-3-19-9-9-10 16-31 6-31-15 0-8 8-14 17-14 15 0 14-2-3-15-17-14-18-16-3-28 27-21 33-70 11-97-31-38-40-18-38 86 1 71 5 97 16 104 25 16 40 11 40-12zm-14350-147c0-72-3-90-16-95-28-11-34 4-34 88 0 88 3 96 32 96 16 0 18-9 18-89zm14313-158c3-38 8-79 12-92 7-19 5-22-11-19-17 3-19 14-22 91-3 102 13 118 21 20zm36 10c-1-65-5-61-12 10-2 26-1 47 4 47s9-26 8-57zm-14368 7c16-9 19-22 19-85 0-71-1-75-22-75-22 0-23 4-23 85 0 47 1 85 3 85s12-5 23-10zm14346-158c8-5 10-27 6-69-3-35-9-60-13-58-4 3-10-4-13-16-5-17-3-18 9-8 13 11 15 7 12-32-2-24-7-43-12-42-23 5-37 112-28 216 2 18 19 22 39 9zm-14325-159c2-54 3-99 3-100-1-1-13 9-28 23-29 27-28 47 1 37 16-6 16-5 0 14-12 13-18 36-18 71 0 44 3 52 19 52 17 0 19-10 23-97zm14316-134c2-24 7-46 12-49 10-6 1-90-9-90-3 0-12 4-20 9-12 8-13 14-3 36 7 14 8 24 3 21-13-9-19 27-14 79 7 58 27 54 31-6zm-14341-1c6-7 13-48 16-90 5-77 5-78-19-78s-24 1-24 90c0 87 6 104 27 78zm14345-240c5-85-5-153-22-153s-26 91-15 163c9 62 32 55 37-10zm-14348 26c13-12 16-39 16-123 0-59-3-110-6-114-3-3-12-3-20 0-11 4-14 32-14 129 0 68 2 124 4 124 3 0 12-7 20-16zm14347-299c-5-62-9-80-21-80-22 0-22 152 0 165 24 15 28 0 21-85zm-14341 26c5-11 10-49 10-85 0-59-2-66-20-66s-20 7-20 85c0 84 9 104 30 66zm14350-143c0-7-4-30-9-51-6-23-5-52 1-74 8-29 7-39-6-51-13-13-18-14-28-3-11 10-10 15 5 25 21 16 23 27 3 20-21-8-17 123 4 136s30 12 30-2zm-14346-36c2-4 8-40 12-81 7-73 7-73-17-69-23 3-24 7-27 81-2 63 0 77 12 77 8 0 17-3 20-8zm-3-182c16-9 19-22 19-84 0-65-2-74-20-79s-20 0-20 53c0 31-3 72-6 89-7 34-3 37 27 21zm14327 2c8-6 12-34 11-90-1-45-5-79-10-76s-6-2-3-10c3-9 2-16-4-16-15 0-22 37-22 123 0 76 3 84 28 69zm-14312-200c6-4 13-40 16-79 5-71 5-73-18-71-21 2-23 7-26 80-3 76 2 88 28 70zm14319-102c0-50-4-75-12-77-10-4-13 16-13 77s3 81 13 78c8-3 12-28 12-78zm-14305-186c0-104 0-105-22-102-19 2-24 10-26 43-2 22-1 68 3 103 6 52 10 62 26 62 18 0 19-8 19-106zm14312 21c1-25 2-53 2-62 1-10-7-19-16-21-16-3-18 5-18 62 0 52 3 66 15 66 11 0 15-12 17-45zm8-174c0-34-6-56-20-72l-19-24-1 53c0 54 13 92 30 92 6 0 10-22 10-49zm-14342 20c19-12 12-115-8-119-12-2-15 11-16 63-1 66 1 71 24 56zm12-221c0-62-2-70-19-70-27 0-33 25-25 97 6 57 8 62 25 52 16-8 19-21 19-79zm14330 19c0-60-12-99-30-99-15 0-13 147 3 153 25 11 27 6 27-54zm-17-261-18-33-3 67c-2 52 1 74 15 95l18 27 3-61c2-45-2-71-15-95zm-14318 27c0-73-2-80-20-80-11 0-20 6-19 13 1 6 2 44 3 83 1 61 3 70 19 67 14-3 17-15 17-83zm14328-179c-14-67-33-57-33 18 0 51 4 67 18 75s17 5 20-22c2-18-1-50-5-71zm-14323-31c0-68-2-75-19-75-30 0-33 14-26 95 7 69 9 74 26 64 16-8 19-21 19-84zm14334-53c-6-31-34-46-34-19 0 15 30 60 36 54 2-2 1-18-2-35zm-6-104c-2-31-8-44-20-46-15-3-18 4-18 42 0 40 3 46 21 46s20-5 17-42zm-14348 17c18-21 26-151 11-169-7-8-8-17-3-20s12-19 14-36c4-28 4-29-14-13-10 9-18 24-18 35 0 10-4 18-10 18s-10 40-10 100c0 99 6 114 30 85zm14346-157c-3-29-6-61-6-70 0-10-7-18-15-18-12 0-15 14-15 63 0 67 4 77 28 77 12 0 14-10 8-52zm-14324-198c8-77 3-95-25-84-14 5-17 20-17 78 0 40 3 76 7 80 17 17 29-6 35-74zm14322-17c-5-65-18-102-32-89-5 6-10 141-5 154 3 6 14 12 24 12 17 0 18-7 13-77zm-14320-125c10-49 13-117 6-129-5-6-15-9-24-6-23 9-24 157-1 157 8 0 17-10 19-22zm14318-30c6-62-1-88-23-88-16 0-19 8-19 53 0 48 12 77 31 77 4 0 9-19 11-42zm-2-213v-102c0-5-8-8-17-8-16 0-18 13-21 103-3 98-3 102 17 102s21-6 21-95zm-14316 43c16-22 22-58 10-58-23 0-44 24-44 50 0 36 13 38 34 8zm6-138c15-72 9-96-20-80-16 9-20 21-20 69 0 55 5 71 20 71 4 0 13-27 20-60zm14314-120c2-73 1-76-21-78s-23 1-23 71c0 76 4 90 28 85 9-2 14-24 16-78zm-14338-1c1-19 9-36 23-45 21-15 30-54 12-54-21 0-51 54-51 91 0 46 14 53 16 8zm14335-199c-3-81-17-120-43-120-9 0-10 83-1 158 5 46 9 53 27 50 19-3 20-8 17-88zm-14303 12c16-36 11-52-13-32-9 8-15 28-14 54 0 22 3 34 6 26s12-30 21-48zm-2-160c9-35 14-66 11-68-2-2-11 2-20 9-15 12-22 68-17 142 3 27 3 28 7 5 2-14 11-54 19-88zm14297-49c-3-32-8-71-12-88-8-33-34-41-39-12-2 9 1 17 7 17s11 5 11 11c0 5-5 7-10 4-15-9-1 74 16 103 24 37 33 25 27-35zm-14312-43c1-5 3-22 5-37 1-16 6-43 10-60 5-27 3-33-10-33s-16 11-16 54c0 30-3 61-6 70s-1 16 5 16 12-4 12-10zm14285-196c-4-14-14-24-24-24-15 0-17 7-14 43 2 24 11 48 20 55 15 12 17 9 20-19 2-17 1-42-2-55zm-14279 32c4-8 7-51 5-96-3-69-6-81-20-78s-18 18-20 82c-2 44-1 85 2 93 7 17 23 17 33-1zm14267-111c-4-8-10-15-15-15s-9-15-9-32c0-44-10-78-22-78-13 0 0 110 14 128 15 17 39 15 32-3zm-7-62c-3-10-5-4-5 12 0 17 2 24 5 18 2-7 2-21 0-30zm13-49c0-16-16-19-25-4-8 13 4 32 16 25 5-4 9-13 9-21zm-14261-26c0-18 4-59 9-90 8-56 8-58-14-58s-23 4-26 90c-3 78-1 90 14 90 11 0 16-9 17-32zm14241-108c-6-78-12-87-23-35-3 12-5 6-6-13-1-22-5-32-13-29-9 2-12 21-9 58 3 58 7 69 22 69 5 0 6-12 3-26-5-19-4-25 5-20 6 4 11 22 11 40 0 27 9 53 15 44 1-2-1-41-5-88zm-14215-170c22-65 24-84 15-95-19-23-28-18-39 23-11 36-15 152-7 152 2 0 16-36 31-80zm14181-97c-3-8-10-11-16-8-7 4-7 13 0 26 7 12 7 19 1 19s-15-9-21-21c-19-35-21-15-4 42 29 98 39 103 42 25 2-38 1-75-2-83zm-14111-105c20-40 40-77 45-82 6-6 10-16 10-24 0-25-29 7-61 67-16 31-27 45-23 31 3-14 17-45 30-69 25-46 25-69-1-35-35 47-66 160-48 177 11 11 12 10 48-65zm14052 27c-18-13-24-41-8-30 17 10-8-59-26-72-23-17-31-16-35 5-5 21 36 108 54 115 22 7 32-5 15-18zm-54-172c-5-12-7-12-15-1-6 10-15 5-38-22-16-19-30-40-30-46s-9-19-20-29c-39-35-29-8 20 57 38 51 54 65 69 61 12-3 17-11 14-20zm-13873-65c18-29 41-60 53-69 19-15 19-18 5-32s-18-14-38 0c-12 9-40 43-61 77-36 54-38 61-22 68 29 11 30 10 63-44zm13853 29c-42-70-103-134-87-92 4 8 10 15 15 15s9 6 9 14 7 16 15 20c8 3 15 11 15 19 0 15 19 37 32 37 5 0 5-6 1-13zm-103-127c0-10-84-100-94-100-2 0 1 12 9 27s12 30 9 35 0 7 7 6c7-2 13 2 14 7 1 20 17 35 36 35 10 0 19-4 19-10zm-13557-102c51-32 57-43 28-53-21-6-86 34-114 71-15 20-15 21 11 16 15-3 48-18 75-34zm13396-30c18-11 17-12-8-33-14-12-44-32-65-45-51-30-44-5 7 29 47 31 40 41-7 11-56-34-64-18-10 17 57 36 58 37 83 21zm-13299-48c0-5 9-10 20-10s20-4 20-9 9-7 20-4c14 4 20 0 20-12s5-15 20-10 20 2 20-13c0-19-2-19-44-7-82 25-118 50-99 68 10 10 23 8 23-3zm13100-60c0-5-4-9-9-7-5 1-16-5-23-14-16-21-178-52-178-35 0 6 44 23 98 37 120 32 112 31 112 19zm-12820-21c43-9 69-24 59-34-3-2-36 1-75 8-53 10-70 17-72 32-3 15 0 17 19 11 13-4 44-12 69-17zm265-30c50-6 113-15 140-19l50-7-51-2c-54-1-249 16-272 24-22 8-3 26 21 20 12-3 63-10 112-16zm12293-11c-7-21-208-39-208-19 0 10 100 28 168 30 31 1 42-3 40-11zm-248-22c0-25-226-36-233-11-1 4 43 10 98 12 55 3 102 7 104 9 10 10 31 3 31-10zm730-276c-24-19-40-25-40-15 0 5 51 34 60 34 3 0-6-8-20-19zm-120-50c-8-5-22-9-30-9-10 0-8 3 5 9 27 12 43 12 25 0zm80-4c0-2-11-6-25-8-13-3-22-1-19 3 5 9 44 13 44 5zm-94-32c-56-20-237-52-331-58-51-3-69-2-50 3 17 5 53 9 82 10 28 0 54 5 57 9 3 5 26 9 53 11 26 1 52 6 59 11 6 6 13 8 16 5s31 1 64 9c76 18 100 19 50 0zm-433-41c-24-2-62-2-85 0-24 2-5 4 42 4s66-2 43-4z"/> <path d="m13374 23178-19-23 23 19c12 11 22 21 22 23 0 8-8 2-26-19z"/> <path d="m17930 23115c19-19 36-35 39-35s-10 16-29 35-36 35-39 35 10-16 29-35z"/> <path d="m13209 23013c-13-16-12-17 4-4 9 7 17 15 17 17 0 8-8 3-21-13z"/> <path d="m13069 22833c-61-93-136-233-124-233 2 0 20 32 40 70 19 39 60 109 90 155 30 47 52 85 50 85-3 0-28-35-56-77z"/> <path d="m8918 21103c7-3 16-2 19 1 4 3-2 6-13 5-11 0-14-3-6-6z"/> <path d="m22730 21020c8-5 22-9 30-9 10 0 8 3-5 9-27 12-43 12-25 0z"/> <path d="m22785 21000c3-4 14-10 25-13s18-2 15 3c-3 4-14 10-25 13s-18 2-15-3z"/> <path d="m14095 18679c-257-34-520-174-662-351-70-86-135-212-169-323-26-83-28-104-28-260-1-191 15-273 78-411 173-374 580-592 1019-546 385 40 701 244 848 548 123 253 114 526-27 805-138 276-377 463-669 524-97 20-295 27-390 14zm132-398c93-43 182-155 247-314 99-237 139-538 88-652-58-128-183-180-299-124-134 65-265 315-329 628-43 210-25 339 60 423 16 17 44 37 61 44 44 19 123 17 172-5z"/> <path d="m17785 18666c-121-56-245-261-270-449-8-62 15-144 52-179 100-95 233-48 358 126 78 109 133 149 174 126 57-30 63-103 46-550-16-391-27-514-51-566-16-33-63-63-129-84-63-20-85-45-85-100 0-58 24-92 88-124 197-99 840-100 1007-1 53 31 75 68 75 128 0 54-19 73-111 115-72 32-104 65-119 123-7 24-10 213-8 523l3 486 27 27c19 19 38 27 62 27 43 0 69-23 115-101 94-159 149-203 252-203 130 1 199 79 199 224 0 140-59 276-164 382-97 98-121 104-263 75-105-22-121-23-588-19-410 4-488 7-535 21-71 22-75 21-135-7z"/> <path d="m12235 18654c-71-7-285-16-475-19-385-7-416-12-451-69-23-37-24-67-5-105 14-26 29-35 140-77 27-11 58-32 70-47 21-28 21-37 24-588 3-651 7-622-89-673-82-44-99-63-99-111 0-22 7-51 16-63 23-33 99-68 190-88 109-24 453-25 567-1 108 22 182 58 207 99 38 63 20 112-53 149-56 28-75 46-100 94-19 35-21 57-22 190v150l205 1c175 0 216 4 280 21 212 59 359 170 430 328 36 79 50 148 50 248 0 253-144 439-406 526-155 52-246 58-479 35zm148-307c90-53 134-159 124-301-11-174-89-255-242-256-121 0-115-15-115 295 0 262 0 264 23 280 35 26 152 16 210-18z"/> <path d="m15570 18659c-118-20-190-77-190-149 0-46 15-67 69-95 27-13 60-38 74-55 51-59 52-77 52-620v-505l-28-57c-21-44-40-65-82-93-85-56-102-93-70-154 53-103 251-150 575-138 305 12 410 52 410 157 0 55-15 78-77 118-26 17-53 40-60 51-21 33-33 139-33 281 0 170 6 184 77 188 79 5 146-36 184-111 11-21 40-115 65-209 53-202 95-298 160-368 85-91 201-130 386-130 161 0 301 38 367 101 33 31 54 86 47 125-8 40-21 50-84 69-85 26-98 49-137 254-38 196-116 305-267 370-109 47-117 84-27 135 149 83 231 263 201 439-32 185-170 313-407 379-75 20-96 22-325 18-391-6-546-5-690 2-77 4-158 3-190-3zm849-308c47-33 73-100 79-195 11-192-59-285-215-286-94 0-95 1-83 242 11 205 17 239 47 257 31 20 135 8 172-18z"/> <path d="m22769 19066c26-28 31-31 31-17 0 5-12 17-27 26l-28 18 24-27z"/> <path d="m8240 10015c0-5 5-17 10-25s10-10 10-5c0 6-5 17-10 25s-10 11-10 5z"/> <path d="m8270 9947c0-14 82-150 119-197 123-155 289-295 461-387 117-63 350-134 428-132l37 1-45 10c-248 52-443 131-577 236-23 17-45 32-50 32-12 0-203 193-252 256-22 27-58 81-80 120-22 38-41 65-41 61z"/> <path d="m9338 9223c12-2 30-2 40 0 9 3-1 5-23 4-22 0-30-2-17-4z"/> <path d="m19808 9223c34-2 90-2 125 0 34 2 6 3-63 3s-97-1-62-3z"/> <path d="m20038 9223c17-2 47-2 65 0 17 2 3 4-33 4s-50-2-32-4z"/> <path d="m23181 10180c-13-50-21-93-19-95 5-5 32 87 43 148 13 66 0 39-24-53z"/> <path d="m8526 17433c9-78 14-79 14-5 0 35-4 62-10 62s-8-21-4-57z"/> <path d="m13675 13599c-257-34-520-174-662-351-70-86-135-212-169-323-26-83-28-104-28-260-1-191 15-273 78-411 173-374 580-592 1019-546 385 40 701 244 848 548 123 253 114 526-27 805-138 276-377 463-669 524-97 20-295 27-390 14zm132-398c93-43 182-155 247-314 99-237 139-538 88-652-58-128-183-180-299-124-134 65-265 315-329 628-43 210-25 339 60 423 16 17 44 37 61 44 44 19 123 17 172-5z"/> <path d="m18785 13599c-257-34-520-174-662-351-70-86-135-212-169-323-26-83-28-104-28-260-1-191 15-273 78-411 173-374 580-592 1019-546 385 40 701 244 848 548 123 253 114 526-27 805-138 276-377 463-669 524-97 20-295 27-390 14zm132-398c93-43 182-155 247-314 99-237 139-538 88-652-58-128-183-180-299-124-134 65-265 315-329 628-43 210-25 339 60 423 16 17 44 37 61 44 44 19 123 17 172-5z"/> <path d="m15319 13591c-239-25-364-91-364-192 0-51 24-72 103-95 31-9 70-30 89-48 31-28 35-39 45-111 17-122 17-1019 0-1067-20-56-48-86-112-118-65-33-90-61-90-102 0-43 20-76 59-95 33-16 86-19 631-24 499-5 606-9 660-22 88-22 106-21 156 8 138 81 243 386 188 548-39 114-175 155-221 67-7-14-22-51-34-82-35-99-75-148-151-187-60-30-78-35-168-39-159-8-226 30-250 140-8 37-10 206-8 555 3 579-5 534 108 590 85 42 104 65 97 121-3 26-14 53-28 68-27 29-121 59-229 73-107 14-392 21-481 12z"/> <path d="m17122 13589c-188-18-311-57-362-116-51-58-34-119 47-171 132-85 134-95 140-582 5-383-3-556-29-642-8-26-25-51-52-72-21-17-55-46-74-64-31-29-34-37-29-73 6-47 27-74 79-100 98-50 316-69 566-50 289 22 402 73 402 180 0 55-21 81-96 122-79 44-88 57-104 154-13 78-13 870 0 959 15 104 32 130 111 177 75 43 89 61 89 109 0 65-53 116-151 144-116 33-344 44-537 25z"/> <path d="m11085 13581c-82-21-135-72-135-128 0-51 16-72 74-98 63-28 112-81 123-132 14-67 10-1e3 -5-1065-18-79-47-118-117-155-77-41-95-64-95-120 0-64 21-97 77-121 91-39 164-46 438-46 283 1 425 16 514 55 68 29 85 50 85 107 0 73-14 89-100 113-133 39-165 102-163 330 0 132 11 199 35 216 10 7 44 13 78 13 112 0 165-48 186-167 18-106 31-123 95-123 77 0 133 61 165 179 19 70 28 247 19 355-11 129-32 198-74 244-30 33-39 37-84 37-65 0-91-25-120-116-12-36-33-76-46-89-44-41-190-40-235 2-22 21-23 25-17 142 13 265 59 304 323 278 188-18 282-62 370-170 25-31 60-65 77-74 65-36 149-12 182 53 53 102 7 321-91 429-21 23-49 46-61 51-14 5-159 2-356-7-329-15-397-14-997 10-63 3-128 2-145-3z"/> <path d="m22880 15399c0-11 4-18 10-14 5 3 7 12 3 20-7 21-13 19-13-6z"/> <path d="m22872 15028c-2-28 1-39 7-33 13 14 18 68 6 72-5 1-11-16-13-39z"/> <path d="m8560 11670c0-5 5-10 11-10 5 0 7 5 4 10-3 6-8 10-11 10-2 0-4-4-4-10z"/> <path d="m22860 11365c0-11-3-31-7-44-4-17-3-22 6-17 6 4 9 11 6 16-3 4 0 10 5 12 8 2 8 11 1 28-8 21-10 22-11 5z"/> <path d="m22850 11169c0-5 5-7 10-4 6 3 10 8 10 11 0 2-4 4-10 4-5 0-10-5-10-11z"/> <path d="m8596 10425c4-8 8-15 10-15s4 7 4 15-4 15-10 15c-5 0-7-7-4-15z"/> <path d="m8600 10391c0-6 5-13 10-16 6-3 10 1 10 9 0 9-4 16-10 16-5 0-10-4-10-9z"/> <path d="m22687 10223c-13-13-7-32 8-27 8 4 15 12 15 20 0 15-12 19-23 7z"/> <path d="m8760 10074c0-17 33-65 52-75l21-11-21 30c-12 16-22 35-22 40s-7 12-15 16c-8 3-15 3-15 0z"/> <path d="m8830 9976c0-2 7-9 15-16 9-7 15-8 15-2 0 5-7 12-15 16-8 3-15 4-15 2z"/> </g> </svg>